{"title":"Instant Mom S03E17 S-A-Tease HDTV x264-[MULVAcoded]","uid":12791932,"size":145240845,"categoryP":"video","categoryS":"tv_shows","magnet":"?xt=urn:btih:5f0f8366c9d95d98508da11cbcaa0b74fc8d183d&amp;dn=Instant+Mom+S03E17+S-A-Tease+HDTV+x264-%5BMULVAcoded%5D&amp;tr=udp%3A%2F%2Ftracker.leechers-paradise.org%3A6969&amp;tr=udp%3A%2F%2Fzer0day.ch%3A1337&amp;tr=udp%3A%2F%2Fopen.demonii.com%3A1337&amp;tr=udp%3A%2F%2Ftracker.coppersurfer.tk%3A6969&amp;tr=udp%3A%2F%2Fexodus.desync.com%3A6969","seeders":0,"leechers":0,"uploader":"Mulva1989","files":2,"time":1447926613,"description":"Instant Mom S03E17 S-A-Tease HDTV x264-[MULVAcoded]\r\n\r\nThe night before Gabby takes the SATs, a secret about Stephanie is exposed; James and Aaron have a hard time sharing a room.\r\n\r\nScreens @ \nhttp://extraimago.com/images/2015/11/19/Instant.Mom.S03E17.S-A-Tease.HDTV.x264-MULVAcoded.mp4_snapshot_00.12_2015.11.19_09.41.53.jpg \nhttp://extraimago.com/images/2015/11/19/Instant.Mom.S03E17.S-A-Tease.HDTV.x264-MULVAcoded.mp4.jpg\r\n\r\nFormat                      : MPEG-4\r\nFormat profile              : Base Media\r\nCodec ID                    : isom\r\nFile size                   : 139 MiB\r\nDuration                    : 19mn 54s\r\nOverall bit rate mode       : Variable\r\nOverall bit rate            : 973 Kbps\r\nEncoded date                : UTC 2015-11-19 08:29:54\r\nTagged date                 : UTC 2015-11-19 08:29:54\r\n\r\nVideo\r\nID                          : 1\r\nFormat                      : AVC\r\nFormat/Info                 : Advanced Video Codec\r\nFormat profile              :   \r\nFormat settings, CABAC      : Yes\r\nFormat settings, ReFrames   : 16 frames\r\nCodec ID                    : avc1\r\nCodec ID/Info               : Advanced Video Coding\r\nDuration                    : 19mn 54s\r\nBit rate                    : 873 Kbps\r\nMaximum bit rate            : 2 437 Kbps\r\nWidth                       : 720 pixels\r\nHeight                      : 404 pixels\r\nDisplay aspect ratio        : 16:9\r\nFrame rate mode             : Constant\r\nFrame rate                  : 23.976 fps\r\nColor space                 : YUV\r\nChroma subsampling          : 4:2:0\r\nBit depth                   : 8 bits\r\nScan type                   : Progressive\r\nBits/(Pixel*Frame)          : 0.125\r\nStream size                 : 124 MiB (90%)\r\nWriting library             : x264 core 146 r2538 121396c\r\nEncoding settings           : cabac=1 / ref=16 / deblock=1:0:0 / analyse=0x3:0x113 / me=umh / subme=8 / psy=1 / psy_rd=1.00:0.00 / mixed_ref=1 / me_range=16 / chroma_me=1 / trellis=1 / 8x8dct=1 / cqm=0 / deadzone=21,11 / fast_pskip=1 / chroma_qp_offset=-2 / threads=6 / lookahead_threads=3 / sliced_threads=0 / nr=0 / decimate=1 / interlaced=0 / bluray_compat=0 / constrained_intra=0 / bframes=16 / b_pyramid=2 / b_adapt=2 / b_bias=0 / direct=3 / weightb=1 / open_gop=0 / weightp=2 / keyint=240 / keyint_min=23 / scenecut=40 / intra_refresh=0 / rc_lookahead=50 / rc=crf / mbtree=1 / crf=20.0 / qcomp=0.60 / qpmin=0 / qpmax=69 / qpstep=4 / ip_ratio=1.40 / aq=1:1.00\r\nEncoded date                : UTC 2015-11-19 08:29:54\r\nTagged date                 : UTC 2015-11-19 08:30:47\r\n\r\nAudio\r\nID                          : 2\r\nFormat                      : AAC\r\nFormat/Info                 : Advanced Audio Codec\r\nFormat profile              : LC\r\nCodec ID                    : 40\r\nDuration                    : 19mn 54s\r\nBit rate mode               : Variable\r\nBit rate                    : 96.0 Kbps\r\nMaximum bit rate            : 104 Kbps\r\nChannel(s)                  : 2 channels\r\nChannel positions           : Front: L R\r\nSampling rate               : 48.0 KHz\r\nCompression mode            : Lossy\r\nStream size                 : 13.7 MiB (10%)\r\nEncoded date                : UTC 2015-11-19 07:58:14\r\nTagged date                 : UTC 2015-11-19 08:30:47","torrent":{"xt":"urn:btih:5f0f8366c9d95d98508da11cbcaa0b74fc8d183d","amp;dn":"Instant+Mom+S03E17+S-A-Tease+HDTV+x264-%5BMULVAcoded%5D","amp;tr":["udp%3A%2F%2Ftracker.leechers-paradise.org%3A6969","udp%3A%2F%2Fzer0day.ch%3A1337","udp%3A%2F%2Fopen.demonii.com%3A1337","udp%3A%2F%2Ftracker.coppersurfer.tk%3A6969","udp%3A%2F%2Fexodus.desync.com%3A6969"],"infoHash":"5f0f8366c9d95d98508da11cbcaa0b74fc8d183d","infoHashBuffer":{"type":"Buffer","data":[95,15,131,102,201,217,93,152,80,141,161,28,188,170,11,116,252,141,24,61]},"announce":[],"urlList":[]}}